<svg xmlns="http://www.w3.org/2000/svg" xmlns:xlink="http://www.w3.org/1999/xlink" width="200" zoomAndPan="magnify" viewBox="0 0 150 60" height="80" preserveAspectRatio="xMidYMid meet" version="1.0"><defs><g/><clipPath id="id1"><path d="M 58.324219 0 L 86.824219 0 L 86.824219 36 L 58.324219 36 Z M 58.324219 0 " clip-rule="nonzero"/></clipPath></defs><rect x="-15" width="180" fill="#ffffff" y="-6" height="72" fill-opacity="1"/><rect x="-15" width="180" fill="#ffffff" y="-6" height="72" fill-opacity="1"/><rect x="-15" width="180" fill="#ffffff" y="-6" height="72" fill-opacity="1"/><g clip-path="url(#id1)"><path fill="#004aad" d="M 67.871094 29.347656 C 68.605469 30.019531 69.257812 30.78125 69.9375 31.515625 C 70.671875 32.308594 71.332031 33.175781 72.125 33.910156 C 73.832031 35.492188 75.71875 35.429688 77.40625 33.824219 C 78.144531 33.125 78.660156 32.277344 79.109375 31.378906 C 79.859375 29.886719 80.359375 28.304688 80.734375 26.6875 C 81.964844 21.433594 82.765625 16.101562 83.585938 10.777344 C 83.734375 9.800781 83.878906 8.824219 84.023438 7.855469 C 84.6875 7.855469 85.273438 7.882812 85.851562 7.851562 C 86.605469 7.808594 87.042969 7.222656 86.710938 6.605469 C 86.195312 5.648438 86.085938 4.613281 85.890625 3.582031 C 85.734375 2.769531 85.597656 1.949219 85.421875 1.140625 C 85.316406 0.644531 85.15625 0.15625 84.542969 0.0664062 C 83.882812 -0.0351562 83.59375 0.425781 83.332031 0.894531 C 83.171875 1.183594 83.039062 1.488281 82.910156 1.792969 C 82.378906 3.042969 81.871094 4.300781 81.328125 5.542969 C 81.226562 5.777344 81.042969 6.054688 80.828125 6.144531 C 80.449219 6.296875 80.171875 6.464844 80.195312 6.898438 C 80.21875 7.335938 80.546875 7.523438 80.910156 7.601562 C 81.378906 7.699219 81.859375 7.734375 82.394531 7.800781 C 82.386719 7.933594 82.390625 8.09375 82.363281 8.25 C 81.875 11.390625 81.433594 14.539062 80.878906 17.667969 C 80.335938 20.742188 79.71875 23.804688 79.054688 26.855469 C 78.699219 28.503906 78.121094 30.09375 77.226562 31.550781 C 76.828125 32.195312 76.375 32.789062 75.703125 33.175781 C 74.988281 33.582031 74.25 33.632812 73.589844 33.09375 C 73.074219 32.675781 72.597656 32.207031 72.152344 31.714844 C 71.316406 30.789062 70.539062 29.804688 69.683594 28.894531 C 69.25 28.433594 68.742188 28.019531 68.203125 27.6875 C 67.28125 27.128906 66.390625 27.210938 65.578125 27.921875 C 65.101562 28.339844 64.652344 28.816406 64.316406 29.347656 C 63.601562 30.46875 62.964844 31.636719 62.308594 32.789062 C 62.0625 33.21875 61.835938 33.660156 61.597656 34.09375 C 61.53125 34.089844 61.464844 34.085938 61.402344 34.082031 C 61.246094 33.734375 61.042969 33.398438 60.945312 33.039062 C 60.59375 31.730469 60.261719 30.421875 59.957031 29.105469 C 59.839844 28.597656 59.835938 28.0625 59.75 27.542969 C 59.65625 26.980469 59.386719 26.726562 58.957031 26.757812 C 58.535156 26.789062 58.3125 27.101562 58.324219 27.660156 C 58.324219 27.71875 58.332031 27.773438 58.339844 27.828125 C 58.5 28.976562 58.609375 30.132812 58.832031 31.269531 C 59.074219 32.515625 59.402344 33.753906 60.0625 34.867188 C 60.898438 36.273438 62.027344 36.308594 62.902344 34.945312 C 63.128906 34.597656 63.3125 34.222656 63.507812 33.855469 C 63.941406 33.050781 64.34375 32.226562 64.8125 31.445312 C 65.230469 30.761719 65.683594 30.089844 66.195312 29.472656 C 66.8125 28.734375 67.164062 28.695312 67.871094 29.347656 Z M 84.035156 3.175781 C 84.089844 3.183594 84.144531 3.191406 84.199219 3.195312 C 84.390625 4.195312 84.582031 5.191406 84.777344 6.222656 L 82.777344 6.222656 C 83.234375 5.121094 83.632812 4.148438 84.035156 3.175781 Z M 84.035156 3.175781 " fill-opacity="1" fill-rule="nonzero"/></g><g fill="#545454" fill-opacity="1"><g transform="translate(56.571539, 57.908166)"><g><path d="M 1.0625 -8.109375 L 4.59375 -8.109375 C 5.4375 -8.109375 6.097656 -7.925781 6.578125 -7.5625 C 7.066406 -7.207031 7.3125 -6.71875 7.3125 -6.09375 C 7.3125 -5.632812 7.179688 -5.242188 6.921875 -4.921875 C 6.671875 -4.597656 6.328125 -4.382812 5.890625 -4.28125 C 6.429688 -4.1875 6.851562 -3.957031 7.15625 -3.59375 C 7.46875 -3.226562 7.625 -2.769531 7.625 -2.21875 C 7.625 -1.53125 7.359375 -0.988281 6.828125 -0.59375 C 6.304688 -0.195312 5.585938 0 4.671875 0 L 1.0625 0 Z M 2.4375 -6.890625 L 2.4375 -4.75 L 4.515625 -4.75 C 4.953125 -4.75 5.289062 -4.84375 5.53125 -5.03125 C 5.78125 -5.226562 5.90625 -5.5 5.90625 -5.84375 C 5.90625 -6.1875 5.785156 -6.445312 5.546875 -6.625 C 5.304688 -6.800781 4.960938 -6.890625 4.515625 -6.890625 Z M 2.4375 -3.546875 L 2.4375 -1.21875 L 4.515625 -1.21875 C 5.054688 -1.21875 5.472656 -1.316406 5.765625 -1.515625 C 6.066406 -1.722656 6.21875 -2.019531 6.21875 -2.40625 C 6.21875 -2.757812 6.066406 -3.035156 5.765625 -3.234375 C 5.472656 -3.441406 5.054688 -3.546875 4.515625 -3.546875 Z M 2.4375 -3.546875 "/></g></g></g><g fill="#545454" fill-opacity="1"><g transform="translate(65.53696, 57.908166)"><g><path d="M 4.6875 0 L 4.6875 -0.75 C 4.238281 -0.207031 3.554688 0.0625 2.640625 0.0625 C 1.984375 0.0625 1.457031 -0.113281 1.0625 -0.46875 C 0.664062 -0.832031 0.46875 -1.296875 0.46875 -1.859375 C 0.46875 -2.421875 0.671875 -2.867188 1.078125 -3.203125 C 1.492188 -3.535156 2.070312 -3.703125 2.8125 -3.703125 L 4.671875 -3.703125 L 4.671875 -3.890625 C 4.671875 -4.285156 4.546875 -4.59375 4.296875 -4.8125 C 4.046875 -5.03125 3.679688 -5.140625 3.203125 -5.140625 C 2.609375 -5.140625 2 -4.929688 1.375 -4.515625 L 0.828125 -5.4375 C 1.304688 -5.71875 1.734375 -5.914062 2.109375 -6.03125 C 2.484375 -6.15625 2.941406 -6.21875 3.484375 -6.21875 C 4.273438 -6.21875 4.882812 -6.023438 5.3125 -5.640625 C 5.75 -5.253906 5.972656 -4.722656 5.984375 -4.046875 L 6 0 Z M 2.921875 -1 C 3.390625 -1 3.785156 -1.109375 4.109375 -1.328125 C 4.441406 -1.546875 4.628906 -1.828125 4.671875 -2.171875 L 4.671875 -2.734375 L 3 -2.734375 C 2.5625 -2.734375 2.238281 -2.671875 2.03125 -2.546875 C 1.832031 -2.421875 1.734375 -2.207031 1.734375 -1.90625 C 1.734375 -1.632812 1.835938 -1.414062 2.046875 -1.25 C 2.253906 -1.082031 2.546875 -1 2.921875 -1 Z M 2.921875 -1 "/></g></g></g><g fill="#545454" fill-opacity="1"><g transform="translate(73.110613, 57.908166)"><g><path d="M 4.59375 -6.21875 C 5.3125 -6.21875 5.875 -6.003906 6.28125 -5.578125 C 6.6875 -5.160156 6.890625 -4.582031 6.890625 -3.84375 L 6.890625 0 L 5.546875 0 L 5.546875 -3.46875 C 5.546875 -3.925781 5.414062 -4.289062 5.15625 -4.5625 C 4.894531 -4.832031 4.53125 -4.96875 4.0625 -4.96875 C 3.570312 -4.957031 3.171875 -4.796875 2.859375 -4.484375 C 2.546875 -4.171875 2.363281 -3.769531 2.3125 -3.28125 L 2.3125 0 L 0.984375 0 L 0.984375 -6.171875 L 2.3125 -6.171875 L 2.3125 -4.984375 C 2.726562 -5.804688 3.488281 -6.21875 4.59375 -6.21875 Z M 4.59375 -6.21875 "/></g></g></g><g fill="#545454" fill-opacity="1"><g transform="translate(81.577318, 57.908166)"><g><path d="M 3.421875 -2.828125 L 2.375 -1.734375 L 2.375 0 L 1.046875 0 L 1.046875 -8.609375 L 2.375 -8.609375 L 2.375 -3.40625 L 5.09375 -6.171875 L 6.625 -6.171875 L 4.34375 -3.78125 L 6.8125 0 L 5.234375 0 Z M 3.421875 -2.828125 "/></g></g></g><g fill="#000000" fill-opacity="1"><g transform="translate(59.585185, 44.813693)"><g><path d="M 1.9375 0 L 1.421875 0 L 1.421875 -3.890625 L 0.046875 -3.890625 L 0.046875 -4.34375 L 3.3125 -4.34375 L 3.3125 -3.890625 L 1.9375 -3.890625 Z M 1.9375 0 "/></g></g></g><g fill="#000000" fill-opacity="1"><g transform="translate(65.802741, 44.813693)"><g><path d="M 0.453125 -0.3125 C 0.453125 -0.445312 0.476562 -0.546875 0.53125 -0.609375 C 0.59375 -0.679688 0.679688 -0.71875 0.796875 -0.71875 C 0.910156 -0.71875 1 -0.679688 1.0625 -0.609375 C 1.132812 -0.546875 1.171875 -0.445312 1.171875 -0.3125 C 1.171875 -0.1875 1.132812 -0.0859375 1.0625 -0.015625 C 1 0.0546875 0.910156 0.09375 0.796875 0.09375 C 0.703125 0.09375 0.617188 0.0625 0.546875 0 C 0.484375 -0.0625 0.453125 -0.164062 0.453125 -0.3125 Z M 0.453125 -0.3125 "/></g></g></g><g fill="#000000" fill-opacity="1"><g transform="translate(70.275836, 44.813693)"><g><path d="M 3.890625 0 L 3.390625 0 L 3.390625 -2.046875 L 1.09375 -2.046875 L 1.09375 0 L 0.59375 0 L 0.59375 -4.34375 L 1.09375 -4.34375 L 1.09375 -2.5 L 3.390625 -2.5 L 3.390625 -4.34375 L 3.890625 -4.34375 Z M 3.890625 0 "/></g></g></g><g fill="#000000" fill-opacity="1"><g transform="translate(77.614833, 44.813693)"><g><path d="M 0.453125 -0.3125 C 0.453125 -0.445312 0.476562 -0.546875 0.53125 -0.609375 C 0.59375 -0.679688 0.679688 -0.71875 0.796875 -0.71875 C 0.910156 -0.71875 1 -0.679688 1.0625 -0.609375 C 1.132812 -0.546875 1.171875 -0.445312 1.171875 -0.3125 C 1.171875 -0.1875 1.132812 -0.0859375 1.0625 -0.015625 C 1 0.0546875 0.910156 0.09375 0.796875 0.09375 C 0.703125 0.09375 0.617188 0.0625 0.546875 0 C 0.484375 -0.0625 0.453125 -0.164062 0.453125 -0.3125 Z M 0.453125 -0.3125 "/></g></g></g><g fill="#000000" fill-opacity="1"><g transform="translate(82.087927, 44.813693)"><g><path d="M 3.015625 0 L 0.59375 0 L 0.59375 -4.34375 L 3.015625 -4.34375 L 3.015625 -3.890625 L 1.09375 -3.890625 L 1.09375 -2.5 L 2.90625 -2.5 L 2.90625 -2.046875 L 1.09375 -2.046875 L 1.09375 -0.453125 L 3.015625 -0.453125 Z M 3.015625 0 "/></g></g></g></svg>