<svg xmlns="http://www.w3.org/2000/svg" xmlns:xlink="http://www.w3.org/1999/xlink" width="300" zoomAndPan="magnify" viewBox="0 0 375 374.999991" height="300" preserveAspectRatio="xMidYMid meet" version="1.0"><defs><g/><clipPath id="id1"><path d="M 138.363281 81.757812 L 236.613281 81.757812 L 236.613281 207 L 138.363281 207 Z M 138.363281 81.757812 " clip-rule="nonzero"/></clipPath></defs><g clip-path="url(#id1)"><path fill="#004aad" d="M 171.277344 183.867188 C 173.8125 186.207031 176.0625 188.855469 178.398438 191.410156 C 180.925781 194.179688 183.214844 197.199219 185.941406 199.746094 C 191.824219 205.25 198.328125 205.042969 204.152344 199.453125 C 206.691406 197.019531 208.472656 194.0625 210.019531 190.945312 C 212.601562 185.742188 214.328125 180.238281 215.625 174.613281 C 219.859375 156.328125 222.628906 137.777344 225.453125 119.246094 C 225.96875 115.84375 226.464844 112.445312 226.964844 109.082031 C 229.25 109.082031 231.261719 109.167969 233.269531 109.0625 C 235.863281 108.917969 237.375 106.871094 236.226562 104.730469 C 234.445312 101.402344 234.066406 97.789062 233.390625 94.210938 C 232.859375 91.378906 232.382812 88.527344 231.785156 85.710938 C 231.421875 83.984375 230.871094 82.289062 228.75 81.964844 C 226.476562 81.625 225.476562 83.21875 224.578125 84.851562 C 224.027344 85.859375 223.570312 86.925781 223.117188 87.984375 C 221.296875 92.328125 219.535156 96.703125 217.664062 101.023438 C 217.316406 101.839844 216.683594 102.8125 215.9375 103.121094 C 214.636719 103.65625 213.691406 104.238281 213.769531 105.746094 C 213.847656 107.273438 214.980469 107.921875 216.234375 108.195312 C 217.84375 108.539062 219.507812 108.652344 221.339844 108.882812 C 221.3125 109.347656 221.328125 109.90625 221.242188 110.449219 C 219.558594 121.375 218.03125 132.332031 216.125 143.226562 C 214.25 153.925781 212.121094 164.578125 209.835938 175.191406 C 208.601562 180.933594 206.609375 186.472656 203.523438 191.539062 C 202.15625 193.777344 200.59375 195.851562 198.273438 197.191406 C 195.808594 198.609375 193.273438 198.78125 190.992188 196.914062 C 189.214844 195.453125 187.570312 193.820312 186.035156 192.101562 C 183.148438 188.882812 180.46875 185.460938 177.523438 182.292969 C 176.035156 180.6875 174.277344 179.242188 172.421875 178.097656 C 169.25 176.144531 166.167969 176.429688 163.375 178.90625 C 161.734375 180.359375 160.179688 182.027344 159.019531 183.867188 C 156.5625 187.765625 154.371094 191.832031 152.097656 195.847656 C 151.253906 197.339844 150.472656 198.871094 149.65625 200.390625 C 149.425781 200.375 149.199219 200.363281 148.976562 200.347656 C 148.445312 199.136719 147.742188 197.972656 147.40625 196.710938 C 146.195312 192.167969 145.042969 187.609375 143.996094 183.027344 C 143.585938 181.253906 143.574219 179.402344 143.28125 177.597656 C 142.964844 175.636719 142.027344 174.75 140.550781 174.855469 C 139.089844 174.964844 138.320312 176.050781 138.363281 178.003906 C 138.371094 178.199219 138.394531 178.390625 138.414062 178.578125 C 138.964844 182.578125 139.355469 186.605469 140.113281 190.566406 C 140.953125 194.902344 142.082031 199.203125 144.363281 203.074219 C 147.242188 207.976562 151.132812 208.089844 154.15625 203.351562 C 154.929688 202.136719 155.558594 200.832031 156.238281 199.558594 C 157.738281 196.761719 159.113281 193.890625 160.738281 191.171875 C 162.171875 188.789062 163.742188 186.457031 165.503906 184.308594 C 167.628906 181.742188 168.835938 181.605469 171.277344 183.867188 Z M 227 92.792969 C 227.1875 92.816406 227.378906 92.84375 227.566406 92.867188 C 228.226562 96.335938 228.886719 99.808594 229.558594 103.398438 L 222.660156 103.398438 C 224.234375 99.558594 225.617188 96.179688 227 92.792969 Z M 227 92.792969 " fill-opacity="1" fill-rule="nonzero"/></g><g fill="#545454" fill-opacity="1"><g transform="translate(132.302342, 282.096164)"><g><path d="M 3.6875 -28.09375 L 15.890625 -28.09375 C 18.804688 -28.09375 21.101562 -27.46875 22.78125 -26.21875 C 24.46875 -24.976562 25.3125 -23.257812 25.3125 -21.0625 C 25.3125 -19.488281 24.867188 -18.144531 23.984375 -17.03125 C 23.109375 -15.925781 21.910156 -15.1875 20.390625 -14.8125 C 22.253906 -14.488281 23.722656 -13.695312 24.796875 -12.4375 C 25.867188 -11.175781 26.40625 -9.597656 26.40625 -7.703125 C 26.40625 -5.296875 25.492188 -3.410156 23.671875 -2.046875 C 21.847656 -0.679688 19.347656 0 16.171875 0 L 3.6875 0 Z M 8.421875 -23.875 L 8.421875 -16.453125 L 15.65625 -16.453125 C 17.144531 -16.453125 18.316406 -16.785156 19.171875 -17.453125 C 20.035156 -18.117188 20.46875 -19.039062 20.46875 -20.21875 C 20.46875 -21.394531 20.046875 -22.296875 19.203125 -22.921875 C 18.359375 -23.554688 17.175781 -23.875 15.65625 -23.875 Z M 8.421875 -12.28125 L 8.421875 -4.21875 L 15.65625 -4.21875 C 17.519531 -4.21875 18.96875 -4.570312 20 -5.28125 C 21.03125 -5.988281 21.546875 -7 21.546875 -8.3125 C 21.546875 -9.539062 21.023438 -10.507812 19.984375 -11.21875 C 18.941406 -11.925781 17.5 -12.28125 15.65625 -12.28125 Z M 8.421875 -12.28125 "/></g></g></g><g fill="#545454" fill-opacity="1"><g transform="translate(163.319291, 282.096164)"><g><path d="M 16.203125 0 L 16.203125 -2.609375 C 14.679688 -0.734375 12.332031 0.203125 9.15625 0.203125 C 6.875 0.203125 5.050781 -0.414062 3.6875 -1.65625 C 2.320312 -2.90625 1.640625 -4.492188 1.640625 -6.421875 C 1.640625 -8.367188 2.347656 -9.914062 3.765625 -11.0625 C 5.179688 -12.21875 7.160156 -12.8125 9.703125 -12.84375 L 16.171875 -12.84375 L 16.171875 -13.484375 C 16.171875 -14.847656 15.734375 -15.90625 14.859375 -16.65625 C 13.992188 -17.40625 12.734375 -17.78125 11.078125 -17.78125 C 9.015625 -17.78125 6.914062 -17.054688 4.78125 -15.609375 L 2.890625 -18.8125 C 4.523438 -19.78125 5.988281 -20.46875 7.28125 -20.875 C 8.582031 -21.289062 10.179688 -21.5 12.078125 -21.5 C 14.804688 -21.5 16.921875 -20.835938 18.421875 -19.515625 C 19.921875 -18.191406 20.679688 -16.351562 20.703125 -14 L 20.75 0 Z M 10.109375 -3.453125 C 11.742188 -3.453125 13.128906 -3.832031 14.265625 -4.59375 C 15.398438 -5.351562 16.035156 -6.320312 16.171875 -7.5 L 16.171875 -9.46875 L 10.390625 -9.46875 C 8.867188 -9.46875 7.753906 -9.242188 7.046875 -8.796875 C 6.335938 -8.359375 5.984375 -7.632812 5.984375 -6.625 C 5.984375 -5.65625 6.347656 -4.882812 7.078125 -4.3125 C 7.816406 -3.738281 8.828125 -3.453125 10.109375 -3.453125 Z M 10.109375 -3.453125 "/></g></g></g><g fill="#545454" fill-opacity="1"><g transform="translate(189.521252, 282.096164)"><g><path d="M 15.890625 -21.5 C 18.378906 -21.5 20.320312 -20.769531 21.71875 -19.3125 C 23.125 -17.863281 23.828125 -15.851562 23.828125 -13.28125 L 23.828125 0 L 19.21875 0 L 19.21875 -12 C 19.21875 -13.601562 18.757812 -14.863281 17.84375 -15.78125 C 16.9375 -16.707031 15.679688 -17.171875 14.078125 -17.171875 C 12.367188 -17.148438 10.972656 -16.601562 9.890625 -15.53125 C 8.804688 -14.457031 8.1875 -13.066406 8.03125 -11.359375 L 8.03125 0 L 3.40625 0 L 3.40625 -21.34375 L 8.03125 -21.34375 L 8.03125 -17.25 C 9.46875 -20.082031 12.085938 -21.5 15.890625 -21.5 Z M 15.890625 -21.5 "/></g></g></g><g fill="#545454" fill-opacity="1"><g transform="translate(218.812833, 282.096164)"><g><path d="M 11.84375 -9.796875 L 8.21875 -5.984375 L 8.21875 0 L 3.609375 0 L 3.609375 -29.765625 L 8.21875 -29.765625 L 8.21875 -11.796875 L 17.65625 -21.34375 L 22.953125 -21.34375 L 15.046875 -13.078125 L 23.546875 0 L 18.09375 0 Z M 11.84375 -9.796875 "/></g></g></g><g fill="#000000" fill-opacity="1"><g transform="translate(142.728422, 236.794272)"><g><path d="M 6.6875 0 L 4.9375 0 L 4.9375 -13.453125 L 0.1875 -13.453125 L 0.1875 -15 L 11.4375 -15 L 11.4375 -13.453125 L 6.6875 -13.453125 Z M 6.6875 0 "/></g></g></g><g fill="#000000" fill-opacity="1"><g transform="translate(164.238805, 236.794272)"><g><path d="M 1.5625 -1.09375 C 1.5625 -1.550781 1.664062 -1.894531 1.875 -2.125 C 2.082031 -2.363281 2.378906 -2.484375 2.765625 -2.484375 C 3.160156 -2.484375 3.46875 -2.363281 3.6875 -2.125 C 3.914062 -1.894531 4.03125 -1.550781 4.03125 -1.09375 C 4.03125 -0.644531 3.914062 -0.300781 3.6875 -0.0625 C 3.46875 0.175781 3.160156 0.296875 2.765625 0.296875 C 2.421875 0.296875 2.132812 0.191406 1.90625 -0.015625 C 1.675781 -0.234375 1.5625 -0.59375 1.5625 -1.09375 Z M 1.5625 -1.09375 "/></g></g></g><g fill="#000000" fill-opacity="1"><g transform="translate(179.71401, 236.794272)"><g><path d="M 13.453125 0 L 11.703125 0 L 11.703125 -7.0625 L 3.8125 -7.0625 L 3.8125 0 L 2.0625 0 L 2.0625 -15 L 3.8125 -15 L 3.8125 -8.625 L 11.703125 -8.625 L 11.703125 -15 L 13.453125 -15 Z M 13.453125 0 "/></g></g></g><g fill="#000000" fill-opacity="1"><g transform="translate(205.10415, 236.794272)"><g><path d="M 1.5625 -1.09375 C 1.5625 -1.550781 1.664062 -1.894531 1.875 -2.125 C 2.082031 -2.363281 2.378906 -2.484375 2.765625 -2.484375 C 3.160156 -2.484375 3.46875 -2.363281 3.6875 -2.125 C 3.914062 -1.894531 4.03125 -1.550781 4.03125 -1.09375 C 4.03125 -0.644531 3.914062 -0.300781 3.6875 -0.0625 C 3.46875 0.175781 3.160156 0.296875 2.765625 0.296875 C 2.421875 0.296875 2.132812 0.191406 1.90625 -0.015625 C 1.675781 -0.234375 1.5625 -0.59375 1.5625 -1.09375 Z M 1.5625 -1.09375 "/></g></g></g><g fill="#000000" fill-opacity="1"><g transform="translate(220.579356, 236.794272)"><g><path d="M 10.421875 0 L 2.0625 0 L 2.0625 -15 L 10.421875 -15 L 10.421875 -13.453125 L 3.8125 -13.453125 L 3.8125 -8.625 L 10.03125 -8.625 L 10.03125 -7.078125 L 3.8125 -7.078125 L 3.8125 -1.5625 L 10.421875 -1.5625 Z M 10.421875 0 "/></g></g></g></svg>