<svg xmlns="http://www.w3.org/2000/svg" xmlns:xlink="http://www.w3.org/1999/xlink" width="300" zoomAndPan="magnify" viewBox="0 0 224.87999 112.499997" height="150" preserveAspectRatio="xMidYMid meet" version="1.0"><defs><g/><clipPath id="id1"><path d="M 97.765625 24.417969 L 126.886719 24.417969 L 126.886719 61.753906 L 97.765625 61.753906 Z M 97.765625 24.417969 " clip-rule="nonzero"/></clipPath></defs><g clip-path="url(#id1)"><path fill="#004aad" d="M 107.519531 54.855469 C 108.269531 55.550781 108.9375 56.339844 109.628906 57.101562 C 110.378906 57.925781 111.058594 58.828125 111.867188 59.585938 C 113.609375 61.226562 115.539062 61.164062 117.265625 59.5 C 118.015625 58.773438 118.542969 57.894531 119.003906 56.964844 C 119.769531 55.414062 120.28125 53.773438 120.664062 52.097656 C 121.917969 46.644531 122.742188 41.117188 123.578125 35.59375 C 123.730469 34.582031 123.875 33.566406 124.023438 32.566406 C 124.703125 32.566406 125.300781 32.589844 125.894531 32.558594 C 126.664062 32.515625 127.109375 31.90625 126.769531 31.269531 C 126.242188 30.277344 126.128906 29.199219 125.929688 28.132812 C 125.773438 27.289062 125.628906 26.4375 125.453125 25.597656 C 125.347656 25.085938 125.183594 24.578125 124.554688 24.484375 C 123.878906 24.378906 123.582031 24.855469 123.316406 25.34375 C 123.15625 25.644531 123.019531 25.960938 122.886719 26.277344 C 122.34375 27.570312 121.824219 28.875 121.269531 30.164062 C 121.164062 30.40625 120.976562 30.695312 120.757812 30.789062 C 120.371094 30.949219 120.089844 31.121094 120.113281 31.570312 C 120.136719 32.023438 120.472656 32.21875 120.84375 32.300781 C 121.320312 32.402344 121.816406 32.4375 122.359375 32.503906 C 122.351562 32.644531 122.355469 32.808594 122.328125 32.972656 C 121.828125 36.230469 121.378906 39.496094 120.8125 42.742188 C 120.257812 45.929688 119.625 49.105469 118.949219 52.269531 C 118.582031 53.980469 117.992188 55.628906 117.078125 57.140625 C 116.671875 57.808594 116.207031 58.425781 115.519531 58.824219 C 114.789062 59.246094 114.039062 59.296875 113.363281 58.742188 C 112.835938 58.308594 112.347656 57.820312 111.894531 57.308594 C 111.039062 56.347656 110.242188 55.328125 109.371094 54.382812 C 108.929688 53.90625 108.410156 53.476562 107.859375 53.132812 C 106.917969 52.550781 106.003906 52.636719 105.175781 53.375 C 104.691406 53.808594 104.230469 54.304688 103.886719 54.855469 C 103.160156 56.015625 102.507812 57.226562 101.835938 58.425781 C 101.585938 58.871094 101.351562 59.328125 101.109375 59.777344 C 101.042969 59.773438 100.976562 59.769531 100.910156 59.765625 C 100.753906 59.40625 100.542969 59.058594 100.445312 58.683594 C 100.085938 57.328125 99.742188 55.96875 99.433594 54.605469 C 99.3125 54.074219 99.308594 53.523438 99.222656 52.984375 C 99.128906 52.402344 98.851562 52.136719 98.414062 52.167969 C 97.980469 52.199219 97.753906 52.523438 97.765625 53.105469 C 97.765625 53.164062 97.773438 53.222656 97.78125 53.277344 C 97.941406 54.46875 98.058594 55.671875 98.28125 56.851562 C 98.53125 58.144531 98.867188 59.425781 99.542969 60.578125 C 100.394531 62.039062 101.546875 62.074219 102.445312 60.660156 C 102.675781 60.300781 102.859375 59.910156 103.0625 59.53125 C 103.507812 58.695312 103.914062 57.84375 104.394531 57.03125 C 104.820312 56.320312 105.285156 55.625 105.808594 54.984375 C 106.4375 54.21875 106.796875 54.179688 107.519531 54.855469 Z M 124.035156 27.710938 C 124.089844 27.714844 124.148438 27.726562 124.203125 27.730469 C 124.398438 28.765625 124.59375 29.800781 124.792969 30.871094 L 122.75 30.871094 C 123.214844 29.726562 123.625 28.71875 124.035156 27.710938 Z M 124.035156 27.710938 " fill-opacity="1" fill-rule="nonzero"/></g><g fill="#545454" fill-opacity="1"><g transform="translate(95.953974, 84.254381)"><g><path d="M 1.109375 -8.390625 L 4.75 -8.390625 C 5.613281 -8.390625 6.296875 -8.203125 6.796875 -7.828125 C 7.304688 -7.460938 7.5625 -6.953125 7.5625 -6.296875 C 7.5625 -5.816406 7.425781 -5.410156 7.15625 -5.078125 C 6.894531 -4.753906 6.539062 -4.535156 6.09375 -4.421875 C 6.644531 -4.328125 7.082031 -4.09375 7.40625 -3.71875 C 7.726562 -3.34375 7.890625 -2.867188 7.890625 -2.296875 C 7.890625 -1.578125 7.613281 -1.015625 7.0625 -0.609375 C 6.519531 -0.203125 5.773438 0 4.828125 0 L 1.109375 0 Z M 2.515625 -7.125 L 2.515625 -4.90625 L 4.671875 -4.90625 C 5.117188 -4.90625 5.46875 -5.003906 5.71875 -5.203125 C 5.976562 -5.410156 6.109375 -5.6875 6.109375 -6.03125 C 6.109375 -6.382812 5.984375 -6.65625 5.734375 -6.84375 C 5.484375 -7.03125 5.128906 -7.125 4.671875 -7.125 Z M 2.515625 -3.671875 L 2.515625 -1.265625 L 4.671875 -1.265625 C 5.234375 -1.265625 5.664062 -1.367188 5.96875 -1.578125 C 6.28125 -1.785156 6.4375 -2.085938 6.4375 -2.484375 C 6.4375 -2.847656 6.28125 -3.132812 5.96875 -3.34375 C 5.65625 -3.5625 5.222656 -3.671875 4.671875 -3.671875 Z M 2.515625 -3.671875 "/></g></g></g><g fill="#545454" fill-opacity="1"><g transform="translate(105.217886, 84.254381)"><g><path d="M 4.84375 0 L 4.84375 -0.78125 C 4.382812 -0.21875 3.679688 0.0625 2.734375 0.0625 C 2.054688 0.0625 1.507812 -0.117188 1.09375 -0.484375 C 0.6875 -0.859375 0.484375 -1.335938 0.484375 -1.921875 C 0.484375 -2.503906 0.695312 -2.96875 1.125 -3.3125 C 1.550781 -3.65625 2.144531 -3.828125 2.90625 -3.828125 L 4.828125 -3.828125 L 4.828125 -4.03125 C 4.828125 -4.4375 4.695312 -4.75 4.4375 -4.96875 C 4.175781 -5.195312 3.800781 -5.3125 3.3125 -5.3125 C 2.695312 -5.3125 2.066406 -5.09375 1.421875 -4.65625 L 0.859375 -5.625 C 1.347656 -5.90625 1.785156 -6.109375 2.171875 -6.234375 C 2.554688 -6.359375 3.035156 -6.421875 3.609375 -6.421875 C 4.421875 -6.421875 5.050781 -6.222656 5.5 -5.828125 C 5.945312 -5.429688 6.175781 -4.882812 6.1875 -4.1875 L 6.203125 0 Z M 3.015625 -1.03125 C 3.503906 -1.03125 3.914062 -1.144531 4.25 -1.375 C 4.59375 -1.601562 4.785156 -1.890625 4.828125 -2.234375 L 4.828125 -2.828125 L 3.109375 -2.828125 C 2.648438 -2.828125 2.3125 -2.757812 2.09375 -2.625 C 1.882812 -2.5 1.78125 -2.285156 1.78125 -1.984375 C 1.78125 -1.691406 1.890625 -1.457031 2.109375 -1.28125 C 2.328125 -1.113281 2.628906 -1.03125 3.015625 -1.03125 Z M 3.015625 -1.03125 "/></g></g></g><g fill="#545454" fill-opacity="1"><g transform="translate(113.043694, 84.254381)"><g><path d="M 4.75 -6.421875 C 5.488281 -6.421875 6.066406 -6.203125 6.484375 -5.765625 C 6.910156 -5.335938 7.125 -4.738281 7.125 -3.96875 L 7.125 0 L 5.734375 0 L 5.734375 -3.578125 C 5.734375 -4.054688 5.597656 -4.429688 5.328125 -4.703125 C 5.054688 -4.984375 4.679688 -5.125 4.203125 -5.125 C 3.691406 -5.125 3.273438 -4.960938 2.953125 -4.640625 C 2.628906 -4.316406 2.441406 -3.898438 2.390625 -3.390625 L 2.390625 0 L 1.015625 0 L 1.015625 -6.375 L 2.390625 -6.375 L 2.390625 -5.15625 C 2.828125 -6 3.613281 -6.421875 4.75 -6.421875 Z M 4.75 -6.421875 "/></g></g></g><g fill="#545454" fill-opacity="1"><g transform="translate(121.792286, 84.254381)"><g><path d="M 3.53125 -2.921875 L 2.453125 -1.78125 L 2.453125 0 L 1.078125 0 L 1.078125 -8.890625 L 2.453125 -8.890625 L 2.453125 -3.515625 L 5.265625 -6.375 L 6.859375 -6.375 L 4.5 -3.90625 L 7.03125 0 L 5.40625 0 Z M 3.53125 -2.921875 "/></g></g></g><g fill="#000000" fill-opacity="1"><g transform="translate(99.067947, 70.723953)"><g><path d="M 2 0 L 1.46875 0 L 1.46875 -4.015625 L 0.0625 -4.015625 L 0.0625 -4.484375 L 3.421875 -4.484375 L 3.421875 -4.015625 L 2 -4.015625 Z M 2 0 "/></g></g></g><g fill="#000000" fill-opacity="1"><g transform="translate(105.492508, 70.723953)"><g><path d="M 0.46875 -0.328125 C 0.46875 -0.460938 0.5 -0.566406 0.5625 -0.640625 C 0.625 -0.710938 0.710938 -0.75 0.828125 -0.75 C 0.941406 -0.75 1.03125 -0.710938 1.09375 -0.640625 C 1.164062 -0.566406 1.203125 -0.460938 1.203125 -0.328125 C 1.203125 -0.191406 1.164062 -0.0859375 1.09375 -0.015625 C 1.03125 0.0546875 0.941406 0.09375 0.828125 0.09375 C 0.722656 0.09375 0.632812 0.0625 0.5625 0 C 0.5 -0.0703125 0.46875 -0.179688 0.46875 -0.328125 Z M 0.46875 -0.328125 "/></g></g></g><g fill="#000000" fill-opacity="1"><g transform="translate(110.114528, 70.723953)"><g><path d="M 4.015625 0 L 3.5 0 L 3.5 -2.109375 L 1.140625 -2.109375 L 1.140625 0 L 0.609375 0 L 0.609375 -4.484375 L 1.140625 -4.484375 L 1.140625 -2.578125 L 3.5 -2.578125 L 3.5 -4.484375 L 4.015625 -4.484375 Z M 4.015625 0 "/></g></g></g><g fill="#000000" fill-opacity="1"><g transform="translate(117.697866, 70.723953)"><g><path d="M 0.46875 -0.328125 C 0.46875 -0.460938 0.5 -0.566406 0.5625 -0.640625 C 0.625 -0.710938 0.710938 -0.75 0.828125 -0.75 C 0.941406 -0.75 1.03125 -0.710938 1.09375 -0.640625 C 1.164062 -0.566406 1.203125 -0.460938 1.203125 -0.328125 C 1.203125 -0.191406 1.164062 -0.0859375 1.09375 -0.015625 C 1.03125 0.0546875 0.941406 0.09375 0.828125 0.09375 C 0.722656 0.09375 0.632812 0.0625 0.5625 0 C 0.5 -0.0703125 0.46875 -0.179688 0.46875 -0.328125 Z M 0.46875 -0.328125 "/></g></g></g><g fill="#000000" fill-opacity="1"><g transform="translate(122.319886, 70.723953)"><g><path d="M 3.109375 0 L 0.609375 0 L 0.609375 -4.484375 L 3.109375 -4.484375 L 3.109375 -4.015625 L 1.140625 -4.015625 L 1.140625 -2.578125 L 3 -2.578125 L 3 -2.109375 L 1.140625 -2.109375 L 1.140625 -0.46875 L 3.109375 -0.46875 Z M 3.109375 0 "/></g></g></g></svg>